<?xml version="1.0" encoding="UTF-8"?>
<svg xmlns="http://www.w3.org/2000/svg" width="256" height="256" viewBox="0 0 32 32">
<polygon points="13.5,3 18.5,3 19,6.5 21.1,7.4 23.9,5.2 27.4,8.7 25.2,11.5 26.1,13.5 29,14 29,18 26.1,18.5 25.2,20.5 27.4,23.3 23.9,26.8 21.1,24.6 19,25.5 18.5,29 13.5,29 13,25.5 10.9,24.6 8.1,26.8 4.6,23.3 6.8,20.5 5.9,18.5 3,18 3,14 5.9,13.5 6.8,11.5 4.6,8.7 8.1,5.2 10.9,7.4 13,6.5" fill="#1E9E8F" stroke="none" stroke-width="1" stroke-linecap="round" stroke-linejoin="round"/>
<circle cx="16" cy="16" r="6" fill="#34495E" stroke="none" stroke-width="1" stroke-linecap="round" stroke-linejoin="round"/>
<circle cx="16" cy="16" r="3.6" fill="#E9F5F3" stroke="none" stroke-width="1" stroke-linecap="round" stroke-linejoin="round"/>
</svg>
